<svg width="922" height="772" viewBox="0 0 922 772" fill="none" xmlns="http://www.w3.org/2000/svg">
<path d="M919.5 549.575L2.5 577.423V28.5911L919.5 61.4121V549.575Z" fill="#2D3748" stroke="#2D3748" stroke-width="5"/>
<path d="M891.5 517.529L42.5 527.471V68.6015L891.5 102.402V517.529Z" fill="white" stroke="black" stroke-width="5"/>
<path d="M466.5 116.557L466.5 518.542C464.269 517.609 461.01 516.273 456.83 514.627C448.366 511.294 436.123 506.692 420.984 501.605C390.712 491.433 348.83 479.312 302.413 471.534C266.613 465.535 208.878 465.549 160.281 467.037C135.943 467.782 113.83 468.899 97.8016 469.83C89.787 470.296 83.2926 470.715 78.8007 471.017C77.0555 471.135 75.6125 471.235 74.5 471.314V52.4286C75.8074 52.3938 77.6254 52.3491 79.9055 52.3023C84.9542 52.1986 92.2682 52.0841 101.321 52.0411C119.427 51.9553 144.48 52.1559 172.269 53.3013C227.944 55.5962 294.259 61.6743 337.773 76.6872C365.077 86.1076 397.719 96.2057 423.518 103.944C436.421 107.815 447.619 111.097 455.592 113.411C459.578 114.569 462.759 115.484 464.943 116.111C465.537 116.281 466.057 116.43 466.5 116.557Z" fill="white" stroke="#2D3748" stroke-width="5"/>
<path d="M470.5 116.871L470.5 520.342C470.727 520.254 470.965 520.162 471.213 520.066C473.875 519.035 477.735 517.551 482.533 515.734C492.129 512.099 505.48 507.13 520.499 501.795C550.5 491.137 587.287 478.968 614.093 473.073C649.474 465.293 712.066 462.368 765.592 461.37C792.402 460.87 817.014 460.852 834.923 460.96C843.877 461.014 851.157 461.099 856.2 461.171C858.414 461.202 860.196 461.231 861.5 461.253V76.6285C860.181 76.4149 858.256 76.109 855.788 75.7316C850.756 74.9624 843.464 73.8965 834.44 72.7119C816.388 70.3425 791.412 67.4996 763.71 65.6046C708.17 61.8053 642.157 61.858 598.903 76.8686C571.667 86.3205 539.107 96.4523 513.374 104.217C500.503 108.1 489.333 111.393 481.38 113.716C477.404 114.877 474.231 115.795 472.052 116.424C471.46 116.595 470.942 116.744 470.5 116.871Z" fill="white" stroke="#2D3748" stroke-width="5"/>
<path d="M339.755 51.1672C366.937 60.781 399.484 74.0827 425.261 84.9932C438.144 90.446 449.325 95.2971 457.285 98.7847C461.265 100.528 464.44 101.931 466.618 102.898C467.365 103.229 467.995 103.509 468.5 103.734L468.5 515.94C466.342 514.855 463.283 513.322 459.486 511.432C451.558 507.485 440.414 501.979 427.546 495.744C401.82 483.279 369.172 467.883 341.562 456.202C297.88 437.72 237.862 430.538 188.983 427.942C164.502 426.641 142.734 426.488 127.086 426.659C119.261 426.745 112.964 426.912 108.619 427.058C106.95 427.114 105.569 427.167 104.5 427.211V30.3505C105.577 30.2877 107.013 30.2076 108.779 30.1174C113.058 29.8988 119.274 29.6209 127.01 29.3841C142.483 28.9103 164.027 28.6015 188.304 29.2605C236.937 30.5808 296.251 35.7809 339.755 51.1672Z" fill="white" stroke="#2D3748" stroke-width="5"/>
<path d="M469.5 103.734L469.5 515.94C471.658 514.855 474.717 513.322 478.514 511.432C486.442 507.485 497.586 501.979 510.454 495.744C536.18 483.279 568.828 467.883 596.438 456.202C640.12 437.72 700.138 430.538 749.017 427.942C773.498 426.641 795.266 426.488 810.914 426.659C818.739 426.745 825.036 426.912 829.381 427.058C831.05 427.114 832.431 427.167 833.5 427.211V36.7651C832.413 36.6555 830.942 36.5114 829.119 36.3427C824.84 35.9468 818.626 35.4153 810.892 34.8741C795.422 33.7915 773.883 32.6707 749.612 32.5177C700.983 32.2112 641.707 35.796 598.245 51.1672C571.063 60.781 538.516 74.0827 512.739 84.9932C499.856 90.446 488.675 95.2971 480.715 98.7847C476.735 100.528 473.56 101.931 471.382 102.898C470.635 103.229 470.005 103.509 469.5 103.734Z" fill="white" stroke="#2D3748" stroke-width="5"/>
<path d="M139.5 393.372V2.51482C140.428 2.50789 141.609 2.50193 143.023 2.50039C146.895 2.49616 152.521 2.52503 159.521 2.65759C173.524 2.92274 193.021 3.60259 214.992 5.26099C259.005 8.58325 312.677 15.8153 352.039 31.3688C376.484 41.0278 405.832 58.0137 429.153 72.6528C440.794 79.9606 450.899 86.6614 458.092 91.5348C461.689 93.9712 464.556 95.9502 466.524 97.3191C467.343 97.889 468.006 98.3531 468.5 98.7004L468.5 514.814C466.61 513.322 464.11 511.363 461.097 509.037C453.91 503.486 443.807 495.838 432.14 487.451C408.843 470.703 379.179 450.911 354.026 439.021C314.526 420.349 260.233 408.914 215.991 402.142C193.836 398.75 174.136 396.518 159.974 395.135C152.893 394.443 147.194 393.962 143.262 393.655C141.733 393.535 140.472 393.442 139.5 393.372Z" fill="white" stroke="#2D3748" stroke-width="5"/>
<path d="M797.5 393.372V2.51482C796.572 2.50789 795.391 2.50193 793.977 2.50039C790.105 2.49616 784.479 2.52503 777.479 2.65759C763.476 2.92274 743.979 3.60259 722.008 5.26099C677.995 8.58325 624.323 15.8153 584.961 31.3688C560.516 41.0278 531.168 58.0137 507.847 72.6528C496.206 79.9606 486.101 86.6614 478.908 91.5348C475.311 93.9712 472.444 95.9502 470.476 97.3191C469.657 97.889 468.994 98.3531 468.5 98.7004L468.5 514.814C470.39 513.322 472.89 511.363 475.903 509.037C483.09 503.486 493.193 495.838 504.86 487.451C528.157 470.703 557.821 450.911 582.974 439.021C622.474 420.349 676.767 408.914 721.009 402.142C743.164 398.75 762.864 396.518 777.026 395.135C784.107 394.443 789.806 393.962 793.738 393.655C795.267 393.535 796.528 393.442 797.5 393.372Z" fill="white" stroke="#2D3748" stroke-width="5"/>
<ellipse cx="355.191" cy="293.108" rx="17" ry="32" transform="rotate(-4 355.191 293.108)" fill="#2D3748"/>
<ellipse cx="527.191" cy="297.108" rx="17" ry="32" transform="rotate(-4 527.191 297.108)" fill="#2D3748"/>
<path d="M388 554H546L560 736H376L388 554Z" fill="#2D3748"/>
<path d="M308 712L633 724L622 772H320L308 712Z" fill="#2D3748"/>
<path d="M486 555.032L525.858 537C525.858 537 531.84 566.719 516.422 570.507C501.004 574.294 486 555.032 486 555.032Z" fill="white"/>
<path d="M391.307 655.402C346.704 649.375 326.571 642.047 282.782 616.486L277.647 625.782C277.647 625.782 311.678 646.131 335.99 654.949C360.057 663.677 400.997 670.678 400.997 670.678L391.307 655.402Z" fill="#2D3748"/>
<path d="M552.094 651.88C604 642 614.381 639.084 654 678L660.619 668C660.619 668 638.312 645.421 614 636.604C589.933 627.876 542.403 636.604 542.403 636.604L552.094 651.88Z" fill="#2D3748"/>
<path d="M281.353 608.48C278.376 617.984 285.062 621.903 285.062 621.903C285.062 621.903 288.963 614.761 291.94 605.257C294.917 595.753 295.357 587.596 292.921 587.037C290.486 586.479 284.331 598.976 281.353 608.48Z" fill="#2D3748"/>
<path d="M653.977 686.779C656.955 677.275 650.268 673.356 650.268 673.356C650.268 673.356 646.368 680.497 643.391 690.001C640.413 699.506 639.974 707.663 642.409 708.221C644.845 708.779 651 696.283 653.977 686.779Z" fill="#2D3748"/>
<path d="M243.064 627.387C261.427 633.105 282.874 627.171 285.785 620.331C288.695 613.492 276.168 603.312 257.805 597.595C239.441 591.878 225.166 592.096 222.256 598.935C219.346 605.775 224.701 621.67 243.064 627.387Z" fill="#2D3748"/>
<path d="M683.901 690.385C679.996 676.545 664.525 666.054 657.205 667.345C649.885 668.635 647.116 680.901 651.021 694.741C654.926 708.58 661.995 717.242 669.315 715.951C676.635 714.661 687.806 704.225 683.901 690.385Z" fill="#2D3748"/>
</svg>
