<svg width="903" height="1019" viewBox="0 0 903 1019" fill="none" xmlns="http://www.w3.org/2000/svg">
<path d="M472.91 964.217C484.153 882.942 480.637 842.744 455.042 747.981L474.966 746.238C474.966 746.238 495.761 820.251 499.949 868.769C504.094 916.797 496.513 992.518 496.513 992.518L472.91 964.217Z" fill="#2D3748"/>
<path d="M657 975.395C657 990.886 608.518 994 554.818 994C501.118 994 459 990.886 459 975.395C459 959.903 501.118 926 554.818 926C608.518 926 657 959.903 657 975.395Z" fill="#2D3748"/>
<path d="M330.748 986.36C341.562 900.178 337.828 857.504 311.716 756.812L331.639 755.069C331.639 755.069 352.84 833.717 357.289 885.223C361.693 936.209 354.513 1016.52 354.513 1016.52L330.748 986.36Z" fill="#2D3748"/>
<path d="M515 999.395C515 1014.89 466.518 1018 412.818 1018C359.118 1018 317 1014.89 317 999.395C317 983.903 359.118 950 412.818 950C466.518 950 515 983.903 515 999.395Z" fill="#2D3748"/>
<path d="M627.649 539.492C697.136 495.862 725.67 467.329 781.81 386.811L795.952 400.953C795.952 400.953 752.622 464.457 718.147 498.852C684.02 532.899 621.141 575.764 621.141 575.764L627.649 539.492Z" fill="#2D3748"/>
<path d="M186.102 590.32C83 590.32 62.9998 628 83 738L62.9998 738C62.9998 738 36.5252 639.395 70.9999 605C105.127 570.953 181 568 181 568L186.102 590.32Z" fill="#2D3748"/>
<path d="M83.3889 755.828C71.8266 739.315 73.5054 718.727 73.5054 718.727C73.5054 718.727 84.933 730.138 96.4954 746.651C108.058 763.163 114.497 778.604 110.878 781.138C107.258 783.673 94.9513 772.341 83.3889 755.828Z" fill="#2D3748"/>
<path d="M20.7522 761.909C30.0728 736.301 61.3681 721.304 75.3805 726.404C89.3929 731.504 93.1963 756.398 83.8757 782.006C74.555 807.615 59.7647 822.009 45.7523 816.909C31.7399 811.809 11.4316 787.517 20.7522 761.909Z" fill="#2D3748"/>
<path d="M783.999 374C789.216 393.472 777.499 401.5 777.499 401.5C777.499 401.5 770.663 386.869 765.446 367.397C760.228 347.926 759.458 331.214 763.726 330.071C767.994 328.927 778.781 354.529 783.999 374Z" fill="#2D3748"/>
<path d="M851.1 412.737C818.919 424.45 781.333 412.293 776.233 398.281C771.133 384.268 793.087 363.414 825.268 351.701C857.449 339.988 882.465 340.434 887.565 354.446C892.666 368.458 883.281 401.024 851.1 412.737Z" fill="#2D3748"/>
<path d="M81 26L605 0C605 0 638.832 233.397 641 384C643.05 526.395 619 748 619 748L185 780C185 780 175.788 557.327 157 416C136.552 262.184 81 26 81 26Z" fill="#2D3748"/>
<path d="M101 46L585.425 25.2C585.425 25.2 619.033 241.2 621 364C622.859 480.107 609 610 609 610L199 638C199 638 184.04 451.236 167 336C148.454 210.581 101 46 101 46Z" fill="white"/>
<path d="M457 693C457 715.688 439.047 734 417 734C394.953 734 377 715.688 377 693C377 670.312 394.953 652 417 652C439.047 652 457 670.312 457 693Z" stroke="white" stroke-width="4"/>
<ellipse cx="375.191" cy="423.108" rx="17" ry="32" transform="rotate(-4 375.191 423.108)" fill="#2D3748"/>
<ellipse cx="436.191" cy="421.108" rx="17" ry="32" transform="rotate(-4 436.191 421.108)" fill="#2D3748"/>
<path d="M333.026 699.276L369.649 742.262C369.649 742.262 333.026 760 323 742.262C312.974 724.524 333.026 699.276 333.026 699.276Z" fill="white"/>
</svg>
